<svg width="13" height="15" viewBox="0 0 13 15" fill="none" xmlns="http://www.w3.org/2000/svg">
<path d="M8.58929 0.703125C8.58929 0.313477 8.89978 0 9.28571 0C9.67165 0 9.98214 0.313477 9.98214 0.703125V1.875H11.1429C12.1672 1.875 13 2.71582 13 3.75V4.21875V5.625V13.125C13 14.1592 12.1672 15 11.1429 15H1.85714C0.832813 15 0 14.1592 0 13.125V5.625V4.21875V3.75C0 2.71582 0.832813 1.875 1.85714 1.875H3.01786V0.703125C3.01786 0.313477 3.32835 0 3.71429 0C4.10022 0 4.41071 0.313477 4.41071 0.703125V1.875H8.58929V0.703125ZM11.6071 5.625H1.39286V13.125C1.39286 13.3828 1.60179 13.5938 1.85714 13.5938H11.1429C11.3982 13.5938 11.6071 13.3828 11.6071 13.125V5.625Z" fill="#FAA61A"/>
</svg>
